<mxfile host="app.diagrams.net" modified="2021-05-13T07:52:53.167Z" agent="5.0 (Windows NT 6.1; Win64; x64) AppleWebKit/537.36 (KHTML, like Gecko) Chrome/90.0.4430.212 Safari/537.36" etag="LKoqwI88KmpoV8T78kpn" version="14.6.12" type="github">
  <diagram id="oQrvM1VzOBdNiyl4vu-T" name="Page-1">
    <mxGraphModel dx="868" dy="525" grid="1" gridSize="10" guides="1" tooltips="1" connect="1" arrows="1" fold="1" page="1" pageScale="1" pageWidth="827" pageHeight="1169" math="0" shadow="0">
      <root>
        <mxCell id="0" />
        <mxCell id="1" parent="0" />
        <mxCell id="nWkTAEv1N8oi5X_GSF99-6" style="edgeStyle=orthogonalEdgeStyle;rounded=0;orthogonalLoop=1;jettySize=auto;html=1;exitX=0.5;exitY=0;exitDx=0;exitDy=0;entryX=0.5;entryY=1;entryDx=0;entryDy=0;" edge="1" parent="1" source="nWkTAEv1N8oi5X_GSF99-1" target="nWkTAEv1N8oi5X_GSF99-3">
          <mxGeometry relative="1" as="geometry" />
        </mxCell>
        <mxCell id="nWkTAEv1N8oi5X_GSF99-11" value="" style="edgeStyle=orthogonalEdgeStyle;rounded=0;orthogonalLoop=1;jettySize=auto;html=1;" edge="1" parent="1" source="nWkTAEv1N8oi5X_GSF99-1" target="nWkTAEv1N8oi5X_GSF99-10">
          <mxGeometry relative="1" as="geometry" />
        </mxCell>
        <mxCell id="nWkTAEv1N8oi5X_GSF99-1" value="用户表" style="rounded=1;whiteSpace=wrap;html=1;" vertex="1" parent="1">
          <mxGeometry x="190" y="210" width="120" height="60" as="geometry" />
        </mxCell>
        <mxCell id="nWkTAEv1N8oi5X_GSF99-7" value="" style="edgeStyle=orthogonalEdgeStyle;rounded=0;orthogonalLoop=1;jettySize=auto;html=1;" edge="1" parent="1" source="nWkTAEv1N8oi5X_GSF99-2" target="nWkTAEv1N8oi5X_GSF99-3">
          <mxGeometry relative="1" as="geometry" />
        </mxCell>
        <mxCell id="nWkTAEv1N8oi5X_GSF99-8" value="" style="edgeStyle=orthogonalEdgeStyle;rounded=0;orthogonalLoop=1;jettySize=auto;html=1;" edge="1" parent="1" source="nWkTAEv1N8oi5X_GSF99-2" target="nWkTAEv1N8oi5X_GSF99-4">
          <mxGeometry relative="1" as="geometry" />
        </mxCell>
        <mxCell id="nWkTAEv1N8oi5X_GSF99-2" value="角色表" style="rounded=1;whiteSpace=wrap;html=1;" vertex="1" parent="1">
          <mxGeometry x="354" y="100" width="120" height="60" as="geometry" />
        </mxCell>
        <mxCell id="nWkTAEv1N8oi5X_GSF99-3" value="&lt;i&gt;用户角色表&lt;/i&gt;" style="rounded=1;whiteSpace=wrap;html=1;fillColor=#dae8fc;strokeColor=#6c8ebf;" vertex="1" parent="1">
          <mxGeometry x="190" y="100" width="120" height="60" as="geometry" />
        </mxCell>
        <mxCell id="nWkTAEv1N8oi5X_GSF99-4" value="&lt;i&gt;角色菜单表&lt;/i&gt;" style="rounded=1;whiteSpace=wrap;html=1;fillColor=#dae8fc;strokeColor=#6c8ebf;" vertex="1" parent="1">
          <mxGeometry x="520" y="100" width="120" height="60" as="geometry" />
        </mxCell>
        <mxCell id="nWkTAEv1N8oi5X_GSF99-9" value="" style="edgeStyle=orthogonalEdgeStyle;rounded=0;orthogonalLoop=1;jettySize=auto;html=1;" edge="1" parent="1" source="nWkTAEv1N8oi5X_GSF99-5" target="nWkTAEv1N8oi5X_GSF99-4">
          <mxGeometry relative="1" as="geometry" />
        </mxCell>
        <mxCell id="nWkTAEv1N8oi5X_GSF99-12" value="" style="edgeStyle=orthogonalEdgeStyle;rounded=0;orthogonalLoop=1;jettySize=auto;html=1;" edge="1" parent="1" source="nWkTAEv1N8oi5X_GSF99-5" target="nWkTAEv1N8oi5X_GSF99-10">
          <mxGeometry relative="1" as="geometry" />
        </mxCell>
        <mxCell id="nWkTAEv1N8oi5X_GSF99-5" value="菜单表" style="rounded=1;whiteSpace=wrap;html=1;" vertex="1" parent="1">
          <mxGeometry x="520" y="210" width="120" height="60" as="geometry" />
        </mxCell>
        <mxCell id="nWkTAEv1N8oi5X_GSF99-10" value="&lt;i&gt;用户菜单表&lt;/i&gt;" style="rounded=1;whiteSpace=wrap;html=1;fillColor=#dae8fc;strokeColor=#6c8ebf;" vertex="1" parent="1">
          <mxGeometry x="354" y="210" width="120" height="60" as="geometry" />
        </mxCell>
        <mxCell id="nWkTAEv1N8oi5X_GSF99-13" value="&lt;font style=&quot;font-size: 14px&quot;&gt;用户菜单：&lt;br&gt;&lt;/font&gt;&lt;ul style=&quot;font-size: 14px&quot;&gt;&lt;li&gt;&lt;font style=&quot;font-size: 14px&quot;&gt;用户-菜单表数据&lt;/font&gt;&lt;/li&gt;&lt;li&gt;&lt;font style=&quot;font-size: 14px&quot;&gt;用户-角色-菜单表数据&lt;/font&gt;&lt;/li&gt;&lt;/ul&gt;&lt;div&gt;&lt;span style=&quot;font-size: 14px&quot;&gt;取消用户菜单：&lt;/span&gt;&lt;/div&gt;&lt;div&gt;&lt;ul&gt;&lt;li&gt;&lt;span style=&quot;font-size: 14px&quot;&gt;只允许取消掉用户-菜单表数据&lt;/span&gt;&lt;/li&gt;&lt;li&gt;&lt;span style=&quot;font-size: 14px&quot;&gt;不允许取消用户-角色-菜单表数据&lt;/span&gt;&lt;/li&gt;&lt;/ul&gt;&lt;/div&gt;&lt;div&gt;&lt;span style=&quot;font-size: 14px&quot;&gt;禁用菜单：&lt;/span&gt;&lt;/div&gt;&lt;div&gt;&lt;ul&gt;&lt;li&gt;&lt;span style=&quot;font-size: 14px&quot;&gt;禁用菜单后，用户菜单中不展示禁用过的菜单&lt;/span&gt;&lt;/li&gt;&lt;/ul&gt;&lt;/div&gt;" style="text;html=1;strokeColor=#d79b00;fillColor=#ffe6cc;align=left;verticalAlign=middle;whiteSpace=wrap;rounded=0;" vertex="1" parent="1">
          <mxGeometry x="190" y="310" width="360" height="220" as="geometry" />
        </mxCell>
        <mxCell id="nWkTAEv1N8oi5X_GSF99-15" value="&lt;font style=&quot;font-size: 14px&quot;&gt;中间表数据状态：已授权、未授权、禁用&lt;/font&gt;" style="text;html=1;strokeColor=#d79b00;fillColor=#ffe6cc;align=left;verticalAlign=middle;whiteSpace=wrap;rounded=0;" vertex="1" parent="1">
          <mxGeometry x="190" y="560" width="360" height="50" as="geometry" />
        </mxCell>
      </root>
    </mxGraphModel>
  </diagram>
</mxfile>
